<?xml version="1.0" encoding="utf-8"?>
<!-- Generator: Adobe Illustrator 19.0.0, SVG Export Plug-In . SVG Version: 6.00 Build 0)  -->
<svg version="1.1" id="Layer_1" xmlns="http://www.w3.org/2000/svg" xmlns:xlink="http://www.w3.org/1999/xlink" x="0px" y="0px"
	 viewBox="0 0 106.6 138.1" style="enable-background:new 0 0 106.6 138.1;" xml:space="preserve">
<style type="text/css">
	.st0{fill:url(#SVGID_1_);}
	.st1{fill:url(#SVGID_2_);}
	.st2{fill:url(#SVGID_3_);}
	.st3{fill:url(#SVGID_4_);}
	.st4{fill:url(#SVGID_5_);}
	.st5{fill:url(#SVGID_6_);}
	.st6{fill:url(#SVGID_7_);}
	.st7{fill:url(#SVGID_8_);}
	.st8{fill:url(#SVGID_9_);}
	.st9{fill:url(#SVGID_10_);}
	.st10{fill:url(#SVGID_11_);}
	.st11{fill:url(#SVGID_12_);}
	.st12{fill:url(#SVGID_13_);}
	.st13{fill:#121C11;}
	.st14{fill:url(#SVGID_14_);}
	.st15{fill:#FFFFFF;}
	.st16{fill:url(#SVGID_15_);}
	.st17{fill:#8D191C;}
	.st18{fill:url(#SVGID_16_);}
</style>
<g>
	
		<radialGradient id="SVGID_1_" cx="-1565.8273" cy="-8387.1074" r="156.361" gradientTransform="matrix(-0.3125 0 0 -1.880000e-02 -431.5389 -22.5546)" gradientUnits="userSpaceOnUse">
		<stop  offset="0" style="stop-color:#A7B6BE"/>
		<stop  offset="0.1252" style="stop-color:#B6C2C9"/>
		<stop  offset="0.509" style="stop-color:#DDE3E6"/>
		<stop  offset="0.8139" style="stop-color:#F6F7F8"/>
		<stop  offset="1" style="stop-color:#FFFFFF"/>
	</radialGradient>
	<path class="st0" d="M9,135.1c0-1.6,21.9-2.9,48.8-2.9c27,0,48.8,1.3,48.8,2.9c0,1.6-21.9,2.9-48.8,2.9C30.8,138.1,9,136.7,9,135.1
		z"/>
	<g>
		
			<radialGradient id="SVGID_2_" cx="914.2377" cy="1400.1099" r="9.4386" gradientTransform="matrix(0.6626 -0.7489 0.7489 0.6626 -1643.5249 -211.1521)" gradientUnits="userSpaceOnUse">
			<stop  offset="5.494510e-03" style="stop-color:#603A17"/>
			<stop  offset="1" style="stop-color:#301911"/>
		</radialGradient>
		<path class="st1" d="M9.6,50.7c0,0-15.3-6.7-7.3-21.4c1-1.8,2.5-3.1,2.4-7.8c0,0,1.8,8.2,5,10.9c3.5,2.9,7.7,6,4.7,17.7L9.6,50.7z
			"/>
		
			<linearGradient id="SVGID_3_" gradientUnits="userSpaceOnUse" x1="912.3035" y1="1380.7621" x2="908.0657" y2="1397.215" gradientTransform="matrix(0.6626 -0.7489 0.7489 0.6626 -1643.5249 -211.1521)">
			<stop  offset="0" style="stop-color:#53140B"/>
			<stop  offset="1.259522e-02" style="stop-color:#5D1B11"/>
			<stop  offset="7.086287e-02" style="stop-color:#873629"/>
			<stop  offset="0.1276" style="stop-color:#A84C3C"/>
			<stop  offset="0.1817" style="stop-color:#C05B49"/>
			<stop  offset="0.2319" style="stop-color:#CE6551"/>
			<stop  offset="0.2747" style="stop-color:#D36854"/>
			<stop  offset="0.3774" style="stop-color:#CA624F"/>
			<stop  offset="0.5474" style="stop-color:#B15140"/>
			<stop  offset="0.7634" style="stop-color:#883729"/>
			<stop  offset="1" style="stop-color:#53140B"/>
		</linearGradient>
		<path class="st2" d="M3.3,29.3C4,28,5,26.8,5.5,24.6c-0.5-1.8-0.8-3.1-0.8-3.1c0.1,4.6-1.4,6-2.4,7.8c-5.2,9.5-0.6,15.6,3.2,18.8
			C1.8,44.5-1.6,38.4,3.3,29.3z"/>
		<g>
			
				<linearGradient id="SVGID_4_" gradientUnits="userSpaceOnUse" x1="875.194" y1="1447.2942" x2="878.7121" y2="1449.545" gradientTransform="matrix(0.6626 -0.7489 0.7489 0.6626 -1643.5249 -211.1521)">
				<stop  offset="0" style="stop-color:#9E3322"/>
				<stop  offset="7.646384e-03" style="stop-color:#A23726"/>
				<stop  offset="5.906724e-02" style="stop-color:#B84D3A"/>
				<stop  offset="0.1157" style="stop-color:#C75C49"/>
				<stop  offset="0.181" style="stop-color:#D06551"/>
				<stop  offset="0.2747" style="stop-color:#D36854"/>
				<stop  offset="0.4726" style="stop-color:#CA5F4B"/>
				<stop  offset="0.7988" style="stop-color:#B14634"/>
				<stop  offset="1" style="stop-color:#9E3322"/>
			</linearGradient>
			<path class="st3" d="M28,118.3l4.1,14c0,0,0.7,2.1,2.7,2c0,0,3.2,0.5,1-6.2l-3.5-13.3l-5.1-19.6L14.8,47.8l-6.6,1.9l13.7,47.3
				L28,118.3z"/>
		</g>
		
			<linearGradient id="SVGID_5_" gradientUnits="userSpaceOnUse" x1="903.7761" y1="1416.5038" x2="897.4425" y2="1411.8591" gradientTransform="matrix(0.6626 -0.7489 0.7489 0.6626 -1643.5249 -211.1521)">
			<stop  offset="0" style="stop-color:#E2E2CF"/>
			<stop  offset="2.196428e-02" style="stop-color:#CBCCBC"/>
			<stop  offset="7.276911e-02" style="stop-color:#9C9E95"/>
			<stop  offset="0.1212" style="stop-color:#777976"/>
			<stop  offset="0.1659" style="stop-color:#5C5F5F"/>
			<stop  offset="0.2057" style="stop-color:#4C5052"/>
			<stop  offset="0.2364" style="stop-color:#464A4D"/>
			<stop  offset="0.2809" style="stop-color:#525557"/>
			<stop  offset="0.3608" style="stop-color:#717273"/>
			<stop  offset="0.3939" style="stop-color:#808080"/>
			<stop  offset="0.5495" style="stop-color:#A8ACBA"/>
			<stop  offset="0.7515" style="stop-color:#EEE6E7"/>
			<stop  offset="1" style="stop-color:#A8ACBA"/>
		</linearGradient>
		<polygon class="st4" points="9.7,55.1 16.3,53.5 14.8,47.8 8.1,49.7 		"/>
	</g>
	<g>
		
			<radialGradient id="SVGID_6_" cx="754.7414" cy="674.7354" r="9.4391" gradientTransform="matrix(0.8803 -0.4743 0.4743 0.8803 -947.1556 -224.1342)" gradientUnits="userSpaceOnUse">
			<stop  offset="5.494510e-03" style="stop-color:#603A17"/>
			<stop  offset="1" style="stop-color:#301911"/>
		</radialGradient>
		<path class="st5" d="M29.7,29.1c0,0-12-11.5,0.5-22.6c1.5-1.3,3.4-2.1,4.9-6.5c0,0-1.2,8.3,0.9,12c2.3,3.9,5.2,8.2-1.7,18.2
			L29.7,29.1z"/>
		
			<linearGradient id="SVGID_7_" gradientUnits="userSpaceOnUse" x1="752.8083" y1="655.3896" x2="748.5706" y2="671.8424" gradientTransform="matrix(0.8803 -0.4743 0.4743 0.8803 -947.1556 -224.1342)">
			<stop  offset="0" style="stop-color:#35150E"/>
			<stop  offset="3.363061e-02" style="stop-color:#3E2E2D"/>
			<stop  offset="8.596046e-02" style="stop-color:#4A5157"/>
			<stop  offset="0.137" style="stop-color:#546C78"/>
			<stop  offset="0.1856" style="stop-color:#5A7F90"/>
			<stop  offset="0.2308" style="stop-color:#5F8B9E"/>
			<stop  offset="0.2692" style="stop-color:#608FA3"/>
			<stop  offset="0.3617" style="stop-color:#5D879A"/>
			<stop  offset="0.5146" style="stop-color:#567381"/>
			<stop  offset="0.7091" style="stop-color:#4A5158"/>
			<stop  offset="0.9354" style="stop-color:#3A231F"/>
			<stop  offset="1" style="stop-color:#35150E"/>
		</linearGradient>
		<path class="st6" d="M31.1,6.8c1.1-1,2.5-1.7,3.7-3.7C34.9,1.3,35.1,0,35.1,0c-1.5,4.4-3.4,5.1-4.9,6.5c-8.1,7.1-6,14.5-3.4,18.8
			C24.5,20.6,23.4,13.7,31.1,6.8z"/>
		<g>
			
				<linearGradient id="SVGID_8_" gradientUnits="userSpaceOnUse" x1="715.6965" y1="721.9203" x2="719.215" y2="724.1714" gradientTransform="matrix(0.8803 -0.4743 0.4743 0.8803 -947.1556 -224.1342)">
				<stop  offset="0" style="stop-color:#3D68AE"/>
				<stop  offset="0.1374" style="stop-color:#4580B8"/>
				<stop  offset="0.3242" style="stop-color:#67B6D5"/>
				<stop  offset="0.6319" style="stop-color:#3F80B6"/>
				<stop  offset="0.8626" style="stop-color:#3D68AE"/>
				<stop  offset="1" style="stop-color:#25529E"/>
			</linearGradient>
			<path class="st7" d="M23.6,98.9l-1,14.6c0,0-0.1,2.3,1.9,2.8c0,0,2.8,1.6,3.1-5.5l1.3-13.7l1.9-20.2l4.7-48.7l-6.9-0.5l-3.4,49.2
				L23.6,98.9z"/>
		</g>
		
			<linearGradient id="SVGID_9_" gradientUnits="userSpaceOnUse" x1="744.2761" y1="691.1284" x2="737.9442" y2="686.4849" gradientTransform="matrix(0.8803 -0.4743 0.4743 0.8803 -947.1556 -224.1342)">
			<stop  offset="0" style="stop-color:#E2E2CF"/>
			<stop  offset="2.196428e-02" style="stop-color:#CBCCBC"/>
			<stop  offset="7.276911e-02" style="stop-color:#9C9E95"/>
			<stop  offset="0.1212" style="stop-color:#777976"/>
			<stop  offset="0.1659" style="stop-color:#5C5F5F"/>
			<stop  offset="0.2057" style="stop-color:#4C5052"/>
			<stop  offset="0.2364" style="stop-color:#464A4D"/>
			<stop  offset="0.2809" style="stop-color:#525557"/>
			<stop  offset="0.3608" style="stop-color:#717273"/>
			<stop  offset="0.3939" style="stop-color:#808080"/>
			<stop  offset="0.5495" style="stop-color:#A8ACBA"/>
			<stop  offset="0.7515" style="stop-color:#EEE6E7"/>
			<stop  offset="1" style="stop-color:#A8ACBA"/>
		</linearGradient>
		<polygon class="st8" points="28.2,33.2 34.9,34.1 35.5,28.2 28.6,27.7 		"/>
	</g>
	<radialGradient id="SVGID_10_" cx="64.5131" cy="94.055" r="59.477" gradientUnits="userSpaceOnUse">
		<stop  offset="0" style="stop-color:#F5DFB2"/>
		<stop  offset="0.3242" style="stop-color:#FCD367"/>
		<stop  offset="1" style="stop-color:#FBCF3A"/>
	</radialGradient>
	<path class="st9" d="M97.9,71.7c-12-20.5-38.5-27.4-59.2-15.3C18,68.5,11,94.9,23,115.4c4.5,7.7,11,13.5,18.5,17
		c12.5,6,16.3-7.1,29.2-14.6c9.3-5.4,27.3-0.9,30.6-10.3C105.3,96.1,104.5,83,97.9,71.7z M46.5,121.9c-3.9,2.3-8.9,1-11.2-2.9
		c-2.3-3.9-1-8.9,2.9-11.2c3.9-2.3,8.9-1,11.2,2.9C51.7,114.6,50.4,119.6,46.5,121.9z"/>
	
		<radialGradient id="SVGID_11_" cx="-3056.5496" cy="953.8495" r="61.8609" gradientTransform="matrix(-0.8632 0.5048 0.5048 0.8632 -3044.3542 825.5972)" gradientUnits="userSpaceOnUse">
		<stop  offset="0" style="stop-color:#FFF0C9"/>
		<stop  offset="0.7198" style="stop-color:#FCD367"/>
	</radialGradient>
	<path class="st10" d="M49.6,106.3c19.5-0.5,38.9-3.4,53.6-6.1c1.5-9.5-0.1-19.6-5.3-28.5c-12-20.5-38.5-27.4-59.2-15.3
		c-17.2,10.1-24.9,30.1-20.1,48.3c7.2,1.1,14.7,1.6,22.3,1.7L49.6,106.3z"/>
	
		<linearGradient id="SVGID_12_" gradientUnits="userSpaceOnUse" x1="-3085.5183" y1="906.4169" x2="-3014.0503" y2="906.4169" gradientTransform="matrix(-0.8632 0.5048 0.5048 0.8632 -3044.3542 825.5972)">
		<stop  offset="0" style="stop-color:#FCD367"/>
		<stop  offset="0.4945" style="stop-color:#FFFFFF"/>
		<stop  offset="1" style="stop-color:#FCD367"/>
	</linearGradient>
	<path class="st11" d="M41.4,61c-13.3,7.8-20.6,21.9-20.2,36.2C18.5,82,25.4,66.1,39.6,57.8c14.1-8.3,31.4-6.5,43.3,3.3
		C70.6,53.8,54.7,53.2,41.4,61z"/>
	<radialGradient id="SVGID_13_" cx="47.4165" cy="118.8736" r="12.8823" gradientUnits="userSpaceOnUse">
		<stop  offset="0" style="stop-color:#FCD367"/>
		<stop  offset="1" style="stop-color:#C19836"/>
	</radialGradient>
	<path class="st12" d="M38.6,108.3c2.9-1.7,6.4-1.5,9,0.3c-2.6-2.2-6.3-2.7-9.4-0.9c-3.5,2.1-4.9,6.4-3.5,10.1
		C33.7,114.1,35.2,110.2,38.6,108.3z"/>
	<g>
		<path class="st13" d="M37.3,100.3c0.7,0.1,0.1-0.9,0.3-1c0.5-0.3,2.7,2.8,4.7-1.4c0.7-1.4-0.5-2.4-0.2-2.9
			c1.3-1.5,1.6-3.4-0.3-6.1c-3.3-4.6-3.9-1.1-4.5-1.5c-0.5-0.3-0.2-1-0.9-1.3c-2.2-1-4.6,0.3-5.1,0.3c-1.7-0.1-4.3,1-4.5,2
			c-0.2,1.2,0,2.4-0.6,3.3c-0.6,0.9-1.1,6.1,2.6,8c2.2,1.1,2.5-0.3,3.1,0c0.6,0.3-0.6,1.9,2,2.4c2.2,0.4,2.8-0.6,2.6-1.8
			c-0.1-0.4-0.5-1-0.2-1.1C36.6,99.2,36.8,100.2,37.3,100.3z"/>
		<g>
			
				<radialGradient id="SVGID_14_" cx="-256.7951" cy="299.9473" r="13.4787" gradientTransform="matrix(0.183 -0.9831 -0.9831 -0.183 375.3742 -104.7379)" gradientUnits="userSpaceOnUse">
				<stop  offset="0" style="stop-color:#528A3F"/>
				<stop  offset="0.1536" style="stop-color:#4E853D"/>
				<stop  offset="0.3328" style="stop-color:#437737"/>
				<stop  offset="0.524" style="stop-color:#31602C"/>
				<stop  offset="0.6742" style="stop-color:#1F4822"/>
				<stop  offset="0.9888" style="stop-color:#121C11"/>
			</radialGradient>
			<path class="st14" d="M36.6,86c0.8,0.2,0.5,1,0.9,1.3c0.6,0.4,1.2-3.1,4.5,1.5c1.9,2.7,1.6,4.5,0.3,6.1c-0.4,0.5,0.8,1.5,0.2,2.9
				c-1.9,4.2-4.2,1.1-4.6,1.4c-0.2,0.2,0.4,1.2-0.3,1c-0.5-0.1-0.7-1.1-0.9-1.1c-0.3,0.1,0.2,0.7,0.2,1.1c0.2,1.1-0.5,2.2-2.6,1.8
				c-2.6-0.5-1.4-2-2-2.4c-0.6-0.3-1,1.1-3.1,0c-3.8-1.9-3.2-7.2-2.6-8c0.6-0.9,0.4-2.1,0.6-3.3C27,88.3,27.5,83.5,36.6,86z"/>
			<path class="st15" d="M29,97.7c0.2,0.1,0.2-0.1,0.1-0.2c-0.1-0.2-0.3-0.3-0.4-0.5c-0.1-0.2-0.2-0.4-0.4-0.6
				c-0.1-0.1,0-0.4-0.2-0.3c-0.1,0-0.1,0.2,0,0.3c0.1,0.2,0.1,0.3,0.2,0.6C28.3,97.4,28.8,97.7,29,97.7z"/>
			<path class="st15" d="M28.8,96.5c0.1,0.1,0.3,0,0.3-0.2c0-0.1-0.2-0.3-0.3-0.3C28.5,96.1,28.6,96.4,28.8,96.5z"/>
			<path class="st15" d="M34.3,100.9c0-0.1,0.3,0,0.5,0c0.3,0,0.7-0.1,0.7,0C35.5,101.2,34.3,101.1,34.3,100.9z"/>
			<path class="st15" d="M33.4,100.1c0.2,0,0.5,0.5,0.2,0.4C33.2,100.5,33,100.1,33.4,100.1z"/>
			<path class="st15" d="M32.3,99.4c0.2,0.1,0.2-0.3,0.1-0.3C32.3,99.2,32.3,99.4,32.3,99.4z"/>
			<path class="st15" d="M40.9,98.9c-0.2,0.2-0.7,0.4-0.7,0.2c0-0.1,0.3-0.1,0.6-0.4c0.3-0.3,0.4-0.7,0.5-0.6
				C41.3,98.2,41.2,98.6,40.9,98.9z"/>
			<path class="st15" d="M39.9,99.1c0.1-0.1,0.2-0.2,0.2-0.3c-0.1-0.1-0.5,0.1-0.5,0.3C39.5,99.1,39.8,99.1,39.9,99.1z"/>
			<path class="st15" d="M42.2,94.4c0,0.2-0.2-0.1-0.2-0.2c0-0.2,0.1-0.4,0.2-0.6c0.1-0.2,0.2-0.3,0.1-0.5c0-0.1,0-0.6,0.1-0.6
				c0.2,0.1,0.2,0.7,0.1,1C42.5,93.8,42.3,94,42.2,94.4z"/>
			<path class="st15" d="M41.4,89.6c-0.1-0.2,0-0.6-0.1-0.8c-0.2-0.3-0.5-0.3-0.8-0.6c-0.2-0.2-0.2-0.5-0.4-0.6
				c-0.3-0.2-0.7-0.2-0.5,0.1c0.3,0.4,0.8,0.4,1,0.7c0.1,0.2,0.1,0.3,0.2,0.5c0.1,0.1,0.3,0.1,0.4,0.3
				C41.2,89.3,41.2,89.6,41.4,89.6z"/>
			<path class="st15" d="M29.2,95.3c0.3,0.8,0.6,1.1,0.6,1.2C29.7,96.7,29.4,96.1,29.2,95.3c-0.4-0.8-0.5-1.5-0.4-1.4
				C28.9,94,28.9,94.6,29.2,95.3z"/>
			<path class="st15" d="M30,97c-0.1,0-0.3-0.3-0.1-0.2C30.2,96.9,30.1,97.1,30,97z"/>
			<path class="st15" d="M29.7,96.7c0-0.1,0.2,0,0.1,0C29.8,96.8,29.7,96.7,29.7,96.7z"/>
			<path class="st15" d="M28.8,93c-0.1,0.5,0,0.7,0,0.8C28.7,93.8,28.7,93.4,28.8,93c0-0.5,0.2-0.9,0.2-0.8
				C29,92.2,28.9,92.5,28.8,93z"/>
		</g>
	</g>
	<g>
		
			<radialGradient id="SVGID_15_" cx="-76.0065" cy="424.7683" r="14.5806" gradientTransform="matrix(0.5426 -0.84 0.84 0.5426 -235.8993 -212.9158)" gradientUnits="userSpaceOnUse">
			<stop  offset="2.247190e-02" style="stop-color:#4265AE"/>
			<stop  offset="0.1935" style="stop-color:#425EAA"/>
			<stop  offset="0.3876" style="stop-color:#4150A1"/>
			<stop  offset="0.414" style="stop-color:#3F4D9C"/>
			<stop  offset="0.882" style="stop-color:#1C164A"/>
		</radialGradient>
		<path class="st16" d="M87,70.3c2.6,1.4,3.7,4.1,4.2,4.5c1.6,1.3,2.9,4.4,2.3,5.4c-0.8,1.2-2,2.1-2.2,3.4c-0.2,1.2-4.1,6.3-9,4.9
			c-2.8-0.8-2-2.3-2.8-2.6c-0.8-0.3-1,2.1-3.7,0.4c-2.2-1.4-1.9-2.9-0.9-3.7c0.4-0.3,1.3-0.4,1.1-0.8C76,81.6,75,82.3,74.4,82
			c-0.7-0.5,0.6-0.9,0.6-1.2c-0.1-0.7-4.7,0.2-2.9-5.1c0.6-1.8,2.5-1.7,2.5-2.4c0.1-2.4,1.4-4.3,5.3-5C79.9,68.3,82.6,67.8,87,70.3z
			"/>
		<path class="st15" d="M90.7,82.2c0.1-0.5-0.6-0.6-0.5-0.1C90.2,82.4,90.6,82.6,90.7,82.2z"/>
		<path class="st15" d="M72.5,78c0,0.4,0.3,0.9,0.4,0.8c0-0.1-0.2-0.4-0.2-0.8c0-0.5,0.2-0.9,0.1-0.9C72.7,77.1,72.5,77.6,72.5,78z"
			/>
		<path class="st15" d="M73.2,79c0-0.2,0-0.4,0.1-0.4c0.2,0,0.4,0.5,0.2,0.7C73.5,79.3,73.3,79.1,73.2,79z"/>
		<path class="st15" d="M75.1,73c-0.2,0.3,0.3,0.1,0.3,0c0.2-0.2,0.3-0.4,0.3-0.7c0.1-0.2,0.1-0.4,0.3-0.6c0.1-0.1,0.5-0.5,0.4-0.6
			c-0.2-0.1-0.7,0.5-0.9,0.8C75.3,72.2,75.3,72.6,75.1,73z"/>
		<path class="st15" d="M91.9,77.7c0,0.2,0.1,0.3,0.2,0.6C92.2,78,92,77.9,91.9,77.7C91.9,77.6,91.9,77.7,91.9,77.7z"/>
		<path class="st15" d="M88.9,72.9c0.4,0.2,0.6,0.5,0.7,0.9c-0.2-0.1-0.3-0.2-0.5-0.4C89.1,73.2,89,73.1,88.9,72.9z"/>
	</g>
	<g>
		<path class="st17" d="M54,64.2c0.6-0.5,0.5,0.8,0.8,0.8c0.6,0.1,1.2-3.9,5-1c1.3,1,0.7,2.5,1.3,2.7c1.9,0.8,3.1,2.3,2.7,5.8
			c-0.8,5.8-3,2.9-3.4,3.6c-0.3,0.5,0.3,1-0.2,1.7c-1.6,2-4.4,1.9-4.9,2.2c-1.5,0.9-4.4,1.1-5.1,0.4c-0.8-1-1.2-2.2-2.2-2.7
			c-0.9-0.5-4-5.1-1.5-8.7c1.5-2,2.5-1,2.9-1.5c0.4-0.6-1.4-1.4,0.7-3.2c1.8-1.4,2.9-0.8,3.3,0.3c0.1,0.4,0,1.2,0.3,1.1
			C53.8,65.5,53.5,64.5,54,64.2z"/>
		<g>
			
				<radialGradient id="SVGID_16_" cx="-88.0555" cy="334.5628" r="14.0575" gradientTransform="matrix(0.6214 0.7835 -0.7835 0.6214 370.658 -66.279)" gradientUnits="userSpaceOnUse">
				<stop  offset="2.247190e-02" style="stop-color:#EC2224"/>
				<stop  offset="0.1921" style="stop-color:#E12123"/>
				<stop  offset="0.4928" style="stop-color:#C31D20"/>
				<stop  offset="0.887" style="stop-color:#92181B"/>
				<stop  offset="1" style="stop-color:#831619"/>
			</radialGradient>
			<path class="st18" d="M50,63.9c1.8-1.4,2.9-0.8,3.3,0.3c0.1,0.4,0,1.2,0.3,1.1c0.2-0.1-0.1-1.1,0.3-1.4c0.6-0.5,0.5,0.8,0.8,0.8
				c0.6,0.1,1.2-3.9,5-1c1.3,1,0.7,2.5,1.3,2.7c1.9,0.8,3.1,2.3,2.7,5.8c-0.8,5.8-3,2.9-3.4,3.6c-0.3,0.5,0.3,1-0.2,1.7
				c-1.6,2-4.4,1.9-4.9,2.2c-1.5,0.9-4.4,1.1-5.1,0.4c-0.8-1-1.2-2.2-2.2-2.7c-0.9-0.5-4-5.1-1.5-8.7C46.3,68.6,47.7,65.6,50,63.9z"
				/>
			<path class="st15" d="M47.2,70.3c0.1-0.2,0.2,0,0.2,0.1c0,0.2-0.1,0.4-0.1,0.7c0,0.3,0,0.4,0,0.8c0,0.1,0.2,0.4,0,0.4
				c-0.1,0-0.2-0.2-0.2-0.3c0-0.2,0-0.4-0.1-0.6C46.8,71,47.1,70.5,47.2,70.3z"/>
			<path class="st15" d="M49.2,77.1c0.4,0.2,0.7-0.3,0.2-0.4C49.2,76.7,48.9,76.9,49.2,77.1z"/>
			<path class="st15" d="M57.7,63.4c-0.3-0.1-0.8,0-0.7,0.1c0,0,0.4,0,0.7,0.1c0.4,0.1,0.7,0.4,0.7,0.3
				C58.4,63.8,58.1,63.5,57.7,63.4z"/>
			<path class="st15" d="M56.7,63.8c0.1,0,0.3,0.1,0.3,0.2c0,0.1-0.5,0.2-0.6,0C56.3,63.9,56.5,63.7,56.7,63.8z"/>
			<path class="st15" d="M61.1,66.9c-0.2-0.2-0.1,0.2-0.1,0.3c0.1,0.2,0.3,0.3,0.5,0.5c0.2,0.1,0.3,0.2,0.4,0.4
				c0.1,0.1,0.3,0.6,0.3,0.5c0.2-0.2-0.2-0.7-0.4-1C61.6,67.3,61.3,67.2,61.1,66.9z"/>
			<path class="st15" d="M62.6,71.7c0,0.3,0.3,0.5,0.3,0.8c0,0.3-0.3,0.5-0.4,1c0,0.3,0,0.5-0.1,0.8c-0.1,0.3-0.6,0.5-0.5,0.1
				c0.1-0.5,0.5-0.7,0.6-1.1c0-0.2-0.1-0.3,0-0.6c0.1-0.2,0.2-0.2,0.2-0.4C62.6,72.1,62.5,71.8,62.6,71.7z"/>
			<path class="st15" d="M52.5,79.4c-0.2-0.1-0.3,0-0.5,0C52.2,79.5,52.4,79.4,52.5,79.4C52.6,79.4,52.6,79.4,52.5,79.4z"/>
			<path class="st15" d="M57.3,78.3c-0.3,0.2-0.6,0.3-0.9,0.4c0.2-0.1,0.3-0.2,0.5-0.3C57,78.3,57.1,78.3,57.3,78.3z"/>
			<path class="st15" d="M48.5,70.4c-0.1,0.1-0.1,0.4,0,0.2C48.8,70.5,48.6,70.3,48.5,70.4z"/>
			<path class="st15" d="M48.4,70.8c0.1,0.1,0.2-0.1,0.1-0.1C48.5,70.7,48.4,70.8,48.4,70.8z"/>
			<path class="st15" d="M49.4,74.8c-0.3-0.4-0.4-0.7-0.4-0.7C48.9,74,49.1,74.4,49.4,74.8c0.2,0.4,0.6,0.7,0.6,0.7
				C50,75.4,49.7,75.2,49.4,74.8z"/>
		</g>
	</g>
</g>
</svg>
